<svg width="24" height="24" viewBox="0 0 24 24" fill="none" xmlns="http://www.w3.org/2000/svg">
<g clip-path="url(#clip0_155_425)">
<path d="M22.0955 12.5998C22.0955 12.0475 21.6478 11.5998 21.0955 11.5998C20.5432 11.5998 20.0955 12.0475 20.0955 12.5998H22.0955ZM11.4955 3.99983C12.0478 3.99983 12.4955 3.55212 12.4955 2.99983C12.4955 2.44755 12.0478 1.99983 11.4955 1.99983V3.99983ZM17.2955 12.5998C17.2955 12.0475 16.8478 11.5998 16.2955 11.5998C15.7432 11.5998 15.2955 12.0475 15.2955 12.5998H17.2955ZM11.4955 8.79983C12.0478 8.79983 12.4955 8.35212 12.4955 7.79983C12.4955 7.24755 12.0478 6.79983 11.4955 6.79983V8.79983ZM16.4452 8.87081C16.8358 8.48028 16.8358 7.84712 16.4452 7.4566C16.0547 7.06607 15.4215 7.06607 15.031 7.4566L16.4452 8.87081ZM10.7884 11.6992C10.3979 12.0897 10.3979 12.7229 10.7884 13.1134C11.1789 13.5039 11.8121 13.5039 12.2026 13.1134L10.7884 11.6992ZM22.1041 5.19395L22.8112 5.90105C23.0791 5.63322 23.1726 5.23705 23.0528 4.87772C22.933 4.51838 22.6205 4.25756 22.2455 4.204L22.1041 5.19395ZM18.2857 9.01232L17.9695 9.96101C18.3288 10.0808 18.725 9.98726 18.9928 9.71943L18.2857 9.01232ZM14.8916 5.61821L14.1845 4.9111C13.9167 5.17894 13.8232 5.5751 13.9429 5.93444L14.8916 5.61821ZM18.71 1.79983L19.7 1.65841C19.6464 1.28345 19.3856 0.970927 19.0262 0.851148C18.6669 0.73137 18.2707 0.824893 18.0029 1.09273L18.71 1.79983ZM15.7402 8.1638L14.7915 8.48002C14.891 8.77863 15.1253 9.01294 15.4239 9.11248L15.7402 8.1638ZM19.1343 4.76968L18.1443 4.9111C18.2072 5.35108 18.5529 5.69678 18.9928 5.75963L19.1343 4.76968ZM20.0955 12.5998C20.0955 17.3495 16.2451 21.1998 11.4955 21.1998V23.1998C17.3497 23.1998 22.0955 18.454 22.0955 12.5998H20.0955ZM11.4955 21.1998C6.74586 21.1998 2.89551 17.3495 2.89551 12.5998H0.895508C0.895508 18.454 5.64129 23.1998 11.4955 23.1998V21.1998ZM2.89551 12.5998C2.89551 7.85019 6.74586 3.99983 11.4955 3.99983V1.99983C5.64129 1.99983 0.895508 6.74562 0.895508 12.5998H2.89551ZM15.2955 12.5998C15.2955 14.6985 13.5942 16.3998 11.4955 16.3998V18.3998C14.6987 18.3998 17.2955 15.8031 17.2955 12.5998H15.2955ZM11.4955 16.3998C9.39683 16.3998 7.69551 14.6985 7.69551 12.5998H5.69551C5.69551 15.8031 8.29226 18.3998 11.4955 18.3998V16.3998ZM7.69551 12.5998C7.69551 10.5011 9.39683 8.79983 11.4955 8.79983V6.79983C8.29226 6.79983 5.69551 9.39658 5.69551 12.5998H7.69551ZM15.031 7.4566L10.7884 11.6992L12.2026 13.1134L16.4452 8.87081L15.031 7.4566ZM21.397 4.48684L17.5786 8.30522L18.9928 9.71943L22.8112 5.90105L21.397 4.48684ZM15.5987 6.32532L19.4171 2.50694L18.0029 1.09273L14.1845 4.9111L15.5987 6.32532ZM18.602 8.06364L16.0564 7.21511L15.4239 9.11248L17.9695 9.96101L18.602 8.06364ZM16.6888 7.84757L15.8403 5.30198L13.9429 5.93444L14.7915 8.48002L16.6888 7.84757ZM17.7201 1.94126L18.1443 4.9111L20.1242 4.62826L19.7 1.65841L17.7201 1.94126ZM18.9928 5.75963L21.9627 6.1839L22.2455 4.204L19.2757 3.77973L18.9928 5.75963Z" fill="#222222"/>
</g>
<defs>
<clipPath id="clip0_155_425">
<rect width="24" height="24" fill="white"/>
</clipPath>
</defs>
</svg>
