<svg width="16" height="16" viewBox="0 0 16 16" fill="none" xmlns="http://www.w3.org/2000/svg">
<path d="M12 2C12 1.73437 11.8945 1.48047 11.707 1.29297C11.3164 0.902344 10.6836 0.902344 10.293 1.29297L4.29297 7.29297C4.10547 7.48047 4 7.73438 4 8C4 8.26562 4.10547 8.51953 4.29297 8.70703L10.293 14.707C10.6836 15.0977 11.3164 15.0977 11.707 14.707C11.8945 14.5195 12 14.2656 12 14C12 13.7344 11.8945 13.4805 11.707 13.293L6.41406 8L11.707 2.70703C11.8945 2.51953 12 2.26562 12 2Z" fill="#222222"/>
</svg>
