<svg width="16" height="16" viewBox="0 0 16 16" fill="none" xmlns="http://www.w3.org/2000/svg">
<g clip-path="url(#clip0_194_1093)">
<path d="M15.0234 14.5527L14.4684 4.48784H11.6955V3.67528C11.6955 1.64864 10.0468 0 8.02028 0C5.99372 0 4.34508 1.64872 4.34508 3.67528V4.48784H1.4522L0.974682 14.5962L0.974199 14.6138C0.970279 14.9775 1.11484 15.3346 1.3706 15.5929C1.62644 15.8515 1.98188 16 2.3458 16H13.6539C14.0289 16 14.3921 15.8438 14.6501 15.5712C14.908 15.2986 15.0441 14.9274 15.0234 14.5527ZM5.30364 3.67528C5.30364 2.17728 6.52228 0.95856 8.02028 0.95856C9.5182 0.95856 10.7369 2.17728 10.7369 3.67528V4.48784H5.30356V3.67528H5.30364ZM13.9539 14.9122C13.876 14.9942 13.7668 15.0414 13.6538 15.0414H2.34572C2.23612 15.0414 2.12916 14.9967 2.05196 14.9186C1.9766 14.8426 1.93332 14.7381 1.9326 14.6309L2.36644 5.4464H4.34492V6.66024C4.34492 6.92496 4.55948 7.13952 4.8242 7.13952C5.08892 7.13952 5.30348 6.92496 5.30348 6.66024V5.4464H10.7368V6.66024C10.7368 6.92496 10.9514 7.13952 11.2161 7.13952C11.4808 7.13952 11.6953 6.92496 11.6953 6.66024V5.4464H13.561L14.066 14.6056C14.0725 14.7184 14.0316 14.8302 13.9539 14.9122Z" fill="#FDFDFD"/>
</g>
<defs>
<clipPath id="clip0_194_1093">
<rect width="16" height="16" fill="white"/>
</clipPath>
</defs>
</svg>
