<svg width="16" height="16" viewBox="0 0 16 16" fill="none" xmlns="http://www.w3.org/2000/svg">
<path d="M1.00685 4.0625C1.00685 1.88821 2.39917 0.125 4.11644 0.125C5.83371 0.125 7.22603 1.88821 7.22603 4.0625C7.27336 4.86228 7.07442 5.65722 6.65666 6.33756C6.23891 7.0179 5.62295 7.55008 4.89383 7.86061V15.0875C4.89383 15.2964 4.81193 15.4967 4.66614 15.6443C4.52035 15.792 4.32262 15.875 4.11644 15.875C3.91026 15.875 3.71252 15.792 3.56673 15.6443C3.42094 15.4967 3.33904 15.2964 3.33904 15.0875V7.86061C2.60993 7.55008 1.99397 7.0179 1.57621 6.33756C1.15846 5.65722 0.959513 4.86228 1.00685 4.0625ZM13.4452 0.9125V4.0625H12.6678V0.9125C12.6678 0.703642 12.5859 0.503338 12.4401 0.355653C12.2943 0.207968 12.0966 0.125 11.8904 0.125C11.6842 0.125 11.4865 0.207968 11.3407 0.355653C11.1949 0.503338 11.113 0.703642 11.113 0.9125V4.0625H10.3356V0.9125C10.3356 0.703642 10.2537 0.503338 10.1079 0.355653C9.96213 0.207968 9.7644 0.125 9.55822 0.125C9.35204 0.125 9.15431 0.207968 9.00852 0.355653C8.86273 0.503338 8.78082 0.703642 8.78082 0.9125V4.85C8.78082 5.47657 9.02653 6.07749 9.46391 6.52054C9.90128 6.96359 10.4945 7.2125 11.113 7.2125V15.0875C11.113 15.2964 11.1949 15.4967 11.3407 15.6443C11.4865 15.792 11.6842 15.875 11.8904 15.875C12.0966 15.875 12.2943 15.792 12.4401 15.6443C12.5859 15.4967 12.6678 15.2964 12.6678 15.0875V7.2125C13.2863 7.2125 13.8795 6.96359 14.3169 6.52054C14.7543 6.07749 15 5.47657 15 4.85V0.9125C15 0.703642 14.9181 0.503338 14.7723 0.355653C14.6265 0.207968 14.4288 0.125 14.2226 0.125C14.0164 0.125 13.8187 0.207968 13.6729 0.355653C13.5271 0.503338 13.4452 0.703642 13.4452 0.9125Z" fill="#FDFDFD"/>
</svg>
