<svg width="16" height="16" viewBox="0 0 16 16" fill="none" xmlns="http://www.w3.org/2000/svg">
<g clip-path="url(#clip0_194_1094)">
<path d="M12.5 12C13.0523 12 13.5 11.5523 13.5 11C13.5 10.4477 13.0523 10 12.5 10C11.9477 10 11.5 10.4477 11.5 11C11.5 11.5523 11.9477 12 12.5 12Z" fill="#FDFDFD"/>
<path d="M3.5 12C4.05228 12 4.5 11.5523 4.5 11C4.5 10.4477 4.05228 10 3.5 10C2.94772 10 2.5 10.4477 2.5 11C2.5 11.5523 2.94772 12 3.5 12Z" fill="#FDFDFD"/>
<path d="M15.5 5V3C15.5 1.34325 14.1567 0 12.5 0H3.5C1.84325 0 0.5 1.34325 0.5 3V5C0.22375 5 0 5.22375 0 5.5V7.5C0 7.77625 0.22375 8 0.5 8V13C0.5 13.5527 0.94725 14 1.5 14V15.5C1.5 15.7762 1.72375 16 2 16H4C4.27625 16 4.5 15.7762 4.5 15.5V14H11.5V15.5C11.5 15.7762 11.7238 16 12 16H14C14.2762 16 14.5 15.7762 14.5 15.5V14C15.0527 14 15.5 13.5527 15.5 13V8C15.7762 8 16 7.77625 16 7.5V5.5C16 5.22375 15.7762 5 15.5 5ZM3.5 1H12.5C13.2382 1 13.876 1.40475 14.2227 2H1.77725C2.124 1.40475 2.76175 1 3.5 1ZM1.5 3H7.5V8H1.5V3ZM3.5 15H2.5V14H3.5V15ZM13.5 15H12.5V14H13.5V15ZM14.5 12.5C14.5 12.7762 14.2762 13 14 13H2C1.72375 13 1.5 12.7762 1.5 12.5V9H14.5V12.5ZM14.5 8H8.5V3H14.5V8Z" fill="#FDFDFD"/>
</g>
<defs>
<clipPath id="clip0_194_1094">
<rect width="16" height="16" fill="white"/>
</clipPath>
</defs>
</svg>
