<svg width="15" height="16" viewBox="0 0 15 16" fill="none" xmlns="http://www.w3.org/2000/svg">
<g clip-path="url(#clip0_194_1091)">
<path d="M12.9993 2.7411C12.9991 2.45983 12.9062 2.18689 12.7356 1.96666C12.5651 1.74644 12.3269 1.59188 12.0598 1.52813L11.7521 0.381622C11.6959 0.196229 11.5827 0.0345005 11.4294 -0.0793315C11.2761 -0.193163 11.0909 -0.252969 10.9017 -0.249788H4.09047C3.90196 -0.254033 3.71734 -0.194499 3.5651 -0.0803789C3.41287 0.0337408 3.3015 0.196098 3.24818 0.381622L2.94042 1.52813C2.66362 1.59973 2.41923 1.76675 2.24819 2.00119C2.07715 2.23564 1.98986 2.52326 2.00094 2.81587C2.00027 3.08134 2.08359 3.33986 2.2384 3.5526C2.39321 3.76533 2.61113 3.92079 2.85943 3.99561L2.94042 6.29693C2.81075 6.31852 2.6914 6.38265 2.60026 6.47971C2.54302 6.54165 2.49847 6.61474 2.46926 6.69465C2.44005 6.77456 2.42676 6.85968 2.43018 6.94496L2.62456 11.7304C2.63046 11.8774 2.68632 12.0177 2.78247 12.127C2.87861 12.2362 3.00898 12.3075 3.15099 12.3286L3.21578 14.1729C3.23246 14.7313 3.46108 15.261 3.85292 15.6489C4.24475 16.0369 4.76882 16.2526 5.31341 16.2499H9.67875C10.2246 16.2543 10.7505 16.0395 11.144 15.6514C11.5375 15.2633 11.7674 14.7326 11.7845 14.1729L11.8493 12.3286C11.9897 12.3056 12.1181 12.2335 12.2126 12.1245C12.3071 12.0154 12.3619 11.8762 12.3676 11.7304L12.562 6.94496C12.5654 6.85968 12.5521 6.77456 12.5229 6.69465C12.4937 6.61474 12.4491 6.54165 12.3919 6.47971C12.304 6.38276 12.1872 6.31848 12.0598 6.29693L12.1408 3.99561C12.3972 3.91033 12.6196 3.74183 12.7745 3.51554C12.9293 3.28925 13.0082 3.01743 12.9993 2.7411ZM4.09047 0.581014L10.9665 0.605938L11.2094 1.4949H3.80701L4.09047 0.581014ZM10.9746 14.148C10.9644 14.4919 10.8228 14.818 10.5804 15.0558C10.338 15.2936 10.0141 15.4241 9.67875 15.4191H5.31341C4.97923 15.4225 4.65709 15.2913 4.41628 15.0536C4.17546 14.8159 4.03521 14.4907 4.02568 14.148L3.96089 12.3369H11.0394L10.9746 14.148ZM5.79935 9.31274C5.79935 8.96767 5.8991 8.63036 6.08598 8.34345C6.27287 8.05653 6.53849 7.83291 6.84927 7.70086C7.16004 7.56881 7.50202 7.53426 7.83193 7.60158C8.16185 7.6689 8.4649 7.83506 8.70276 8.07906C8.94062 8.32306 9.1026 8.63393 9.16823 8.97237C9.23385 9.3108 9.20017 9.6616 9.07144 9.9804C8.94272 10.2992 8.72472 10.5717 8.44503 10.7634C8.16534 10.9551 7.83651 11.0574 7.50013 11.0574C7.04905 11.0574 6.61645 10.8736 6.29749 10.5464C5.97854 10.2192 5.79935 9.77546 5.79935 9.31274ZM11.2499 6.28031H3.75031L3.66932 4.06207H11.3228L11.2499 6.28031ZM11.7845 3.23127H3.21578C3.15682 3.22924 3.09893 3.21457 3.04582 3.18822C2.99272 3.16186 2.94558 3.12439 2.90744 3.07822C2.8693 3.03205 2.841 2.97821 2.82436 2.92015C2.80772 2.86208 2.80312 2.8011 2.81083 2.7411C2.81083 2.63093 2.8535 2.52527 2.92944 2.44737C3.00538 2.36946 3.10838 2.3257 3.21578 2.3257H11.7845C11.8432 2.32847 11.9007 2.34363 11.9535 2.37023C12.0062 2.39683 12.053 2.43429 12.091 2.48029C12.129 2.52629 12.1574 2.57983 12.1743 2.63757C12.1912 2.6953 12.1964 2.756 12.1894 2.81587C12.1894 2.92604 12.1468 3.0317 12.0708 3.1096C11.9949 3.18751 11.8919 3.23127 11.7845 3.23127Z" fill="#FDFDFD"/>
</g>
<defs>
<clipPath id="clip0_194_1091">
<rect width="15" height="16" fill="white"/>
</clipPath>
</defs>
</svg>
