<svg width="26" height="27" viewBox="0 0 26 27" fill="none" xmlns="http://www.w3.org/2000/svg">
<mask id="mask0_155_275" style="mask-type:luminance" maskUnits="userSpaceOnUse" x="0" y="0" width="26" height="27">
<path d="M25.8043 0.75H0.301636V26.25H25.8043V0.75Z" fill="white"/>
</mask>
<g mask="url(#mask0_155_275)">
<path d="M25.2942 13.7899C25.2942 12.8858 25.2132 12.0165 25.0624 11.1819H13.053V16.1138H19.9155C19.6199 17.7076 18.7216 19.0579 17.3711 19.962V23.1611H21.4921C23.9032 20.9415 25.2942 17.6728 25.2942 13.7899Z" fill="#4285F4"/>
<path d="M13.0529 26.2501C16.4958 26.2501 19.3822 25.1083 21.4919 23.1612L17.3709 19.9621C16.2292 20.7271 14.7685 21.179 13.0529 21.179C9.73172 21.179 6.92069 18.9362 5.91793 15.9226H1.65784V19.226C3.75607 23.393 8.06831 26.2501 13.0529 26.2501Z" fill="#34A853"/>
<path d="M5.91795 15.9226C5.66293 15.1576 5.51807 14.3404 5.51807 13.5001C5.51807 12.6597 5.66293 11.8426 5.91795 11.0776V7.77417H1.65787C0.794346 9.49542 0.301636 11.4427 0.301636 13.5001C0.301636 15.5574 0.794346 17.5047 1.65787 19.226L5.91795 15.9226Z" fill="#FBBC04"/>
<path d="M13.0529 5.82106C14.925 5.82106 16.6058 6.46429 17.9274 7.72769L21.5847 4.07074C19.3764 2.0134 16.4899 0.75 13.0529 0.75C8.06831 0.75 3.75607 3.60715 1.65784 7.7741L5.91793 11.0775C6.92069 8.06391 9.73172 5.82106 13.0529 5.82106Z" fill="#E94235"/>
</g>
</svg>
